# xmcd CD database file
#
# Track frame offsets:
#	187
#	3412
#	40525
#	50617
#	64880
#	76575
#	93340
#	110135
#	123130
#	140690
#	150637
#	168977
#	181867
#	210000
#
# Disc length: 2944 seconds
#
# Revision: 6
# Processed by: cddbd v1.5.2PL0 Copyright (c) Steve Scherf et al.
# Submitted via: CDex 1.51
#
DISCID=a70b7e0e
DTITLE=CARPENTERS - Christmas Collection 2
DYEAR=1984
DGENRE=Pop
TTITLE0=It Came Upon A Midnight Clear
TTITLE1=Overture
TTITLE2=An Old-Fashioned Christmas
TTITLE3=O Holy Night
TTITLE4=Home For The Holidays
TTITLE5=Medley
TTITLE6=Little Altar Boy
TTITLE7=Do You Hear What I Hear?
TTITLE8=My Favorite Things
TTITLE9=He Came Here For Me
TTITLE10=Santa Claus Is Comin' To Town
TTITLE11=What Are You Doing New Year's Eve?
TTITLE12=Selections from "The Nutcracker"
TTITLE13=I Heard The Bells On Christmas Day
EXTD=YEAR: 1984
EXTT0=
EXTT1=
EXTT2=
EXTT3=
EXTT4=
EXTT5=
EXTT6=
EXTT7=
EXTT8=
EXTT9=
EXTT10=
EXTT11=
EXTT12=
EXTT13=
PLAYORDER=
